<?xml version="1.0" encoding="utf-8"?>
<!-- Generator: Adobe Illustrator 26.0.0, SVG Export Plug-In . SVG Version: 6.00 Build 0)  -->
<svg version="1.1" id="CMYK" xmlns="http://www.w3.org/2000/svg" xmlns:xlink="http://www.w3.org/1999/xlink" x="0px" y="0px"
	 viewBox="0 0 1000 1000" style="enable-background:new 0 0 1000 1000;" xml:space="preserve">
<style type="text/css">
	.st0{fill:#EC008C;}
	.st1{fill:#00AEEF;}
	.st2{fill:#2E3192;}
	.st3{fill:#FFF200;}
	.st4{fill:#ED1C24;}
	.st5{fill:#00A651;}
	.st6{display:none;}
	.st7{display:inline;}
</style>
<g id="slices">
	<path class="st0" d="M128.8,607.2c0,136.7,110.8,247.5,247.5,247.5c45.1,0,87.3-12.1,123.7-33.1c-74-42.8-123.7-122.8-123.7-214.4
		c0,0,0,0,0,0c-74-42.8-123.7-122.8-123.7-214.4C178.5,435.6,128.8,515.6,128.8,607.2z"/>
	<path class="st1" d="M623.7,607.2C623.7,607.2,623.7,607.2,623.7,607.2c0,91.6-49.8,171.6-123.7,214.4
		c36.4,21.1,78.7,33.1,123.7,33.1c136.7,0,247.5-110.8,247.5-247.5c0-91.6-49.8-171.6-123.7-214.4
		C747.5,484.4,697.7,564.4,623.7,607.2z"/>
	<path class="st2" d="M623.7,607.2C623.7,607.2,623.7,607.2,623.7,607.2c-36.4,21.1-78.7,33.1-123.7,33.1s-87.3-12.1-123.7-33.1
		c0,0,0,0,0,0c0,91.6,49.8,171.6,123.7,214.4C574,778.8,623.7,698.8,623.7,607.2z"/>
	<path class="st3" d="M500,392.8c36.4-21.1,78.7-33.1,123.7-33.1s87.3,12.1,123.7,33.1c0,0,0,0,0,0c0-136.7-110.8-247.5-247.5-247.5
		S252.5,256.1,252.5,392.8c0,0,0,0,0,0c36.4-21.1,78.7-33.1,123.7-33.1S463.6,371.8,500,392.8z"/>
	<path class="st4" d="M376.3,607.2c0-91.6,49.8-171.6,123.7-214.4c-36.4-21.1-78.7-33.1-123.7-33.1s-87.3,12.1-123.7,33.1
		C252.5,484.4,302.3,564.4,376.3,607.2z"/>
	<path class="st5" d="M500,392.8c74,42.8,123.7,122.8,123.7,214.4c74-42.8,123.7-122.8,123.7-214.4c-36.4-21.1-78.7-33.1-123.7-33.1
		S536.4,371.8,500,392.8z"/>
	<path d="M623.7,607.2c0-91.6-49.8-171.6-123.7-214.4c-74,42.8-123.7,122.8-123.7,214.4c36.4,21.1,78.7,33.1,123.7,33.1
		S587.3,628.2,623.7,607.2z"/>
</g>
<g id="guides" class="st6">
	<g id="circles" class="st7">
	</g>
	<g id="lines" class="st7">
	</g>
</g>
</svg>
